<svg width="71" height="70" viewBox="0 0 71 70" fill="none" xmlns="http://www.w3.org/2000/svg">
<g filter="url(#filter0_d_1405_1555)">
<rect x="4" width="63" height="62" rx="12" fill="#1F3269"/>
<rect x="5" y="1" width="61" height="60" rx="11" stroke="white" stroke-width="2"/>
</g>
<path d="M35.5 55C48.4787 55 59 44.4787 59 31.5C59 18.5213 48.4787 8 35.5 8C22.5213 8 12 18.5213 12 31.5C12 44.4787 22.5213 55 35.5 55Z" stroke="#51E7F2" stroke-width="3" stroke-miterlimit="10" stroke-dasharray="6 3"/>
<path d="M35.71 30.3444C39.1188 30.3444 41.8822 27.581 41.8822 24.1722C41.8822 20.7634 39.1188 18 35.71 18C32.3012 18 29.5378 20.7634 29.5378 24.1722C29.5378 27.581 32.3012 30.3444 35.71 30.3444Z" fill="#D84190"/>
<path d="M26.9975 45.4352C30.4063 45.4352 33.1697 42.6718 33.1697 39.263C33.1697 35.8542 30.4063 33.0908 26.9975 33.0908C23.5887 33.0908 20.8253 35.8542 20.8253 39.263C20.8253 42.6718 23.5887 45.4352 26.9975 45.4352Z" fill="#D84190"/>
<path d="M44.4226 45.4352C47.8314 45.4352 50.5948 42.6718 50.5948 39.263C50.5948 35.8542 47.8314 33.0908 44.4226 33.0908C41.0138 33.0908 38.2504 35.8542 38.2504 39.263C38.2504 42.6718 41.0138 45.4352 44.4226 45.4352Z" fill="#D84190"/>
<defs>
<filter id="filter0_d_1405_1555" x="0" y="0" width="71" height="70" filterUnits="userSpaceOnUse" color-interpolation-filters="sRGB">
<feFlood flood-opacity="0" result="BackgroundImageFix"/>
<feColorMatrix in="SourceAlpha" type="matrix" values="0 0 0 0 0 0 0 0 0 0 0 0 0 0 0 0 0 0 127 0" result="hardAlpha"/>
<feOffset dy="4"/>
<feGaussianBlur stdDeviation="2"/>
<feComposite in2="hardAlpha" operator="out"/>
<feColorMatrix type="matrix" values="0 0 0 0 0 0 0 0 0 0 0 0 0 0 0 0 0 0 0.25 0"/>
<feBlend mode="normal" in2="BackgroundImageFix" result="effect1_dropShadow_1405_1555"/>
<feBlend mode="normal" in="SourceGraphic" in2="effect1_dropShadow_1405_1555" result="shape"/>
</filter>
</defs>
</svg>
